<svg width="684" height="98" viewBox="0 0 684 98" fill="none" xmlns="http://www.w3.org/2000/svg">
<path d="M278 1H290.708C292.823 1 294.851 1.83716 296.35 3.32847L388.169 94.6715C389.668 96.1628 391.697 97 393.811 97H406" stroke="#31353D"/>
<path d="M0 1H278" stroke="#31353D"/>
<path d="M470 33H560L592 65H684" stroke="#31353D"/>
<path d="M470 65H560" stroke="#31353D"/>
<path d="M470 1H560" stroke="#31353D"/>
<path d="M684 1H593V17L609 33H684" stroke="#31353D"/>
<path d="M64 97H342" stroke="#31353D"/>
<path d="M406 97H684" stroke="#31353D"/>
<path d="M0 97C17.6731 97 32 82.6731 32 65C32 47.3269 17.6731 33 0 33" stroke="#31353D"/>
<path d="M180 65H293.5C293.776 65 294 64.7761 294 64.5V49.4142C294 49.149 293.895 48.8946 293.707 48.7071L278.439 33.4393C278.158 33.158 277.777 33 277.379 33H180" stroke="#31353D"/>
<circle cx="406" cy="33" r="32" stroke="#31353D"/>
<path d="M64 33H148V65H80L64 49V33Z" stroke="#31353D"/>
</svg>
