<svg xmlns:xlink="http://www.w3.org/1999/xlink" viewBox="0 0 78 24" fill="none" xmlns="http://www.w3.org/2000/svg" aria-labelledby="wysemeter Main Icon" width="78"  height="24" >
<path d="M0.0396414 3.82945C-0.110856 3.42811 0.185824 3 0.614449 3H2.98577C3.24204 3 3.47135 3.1592 3.56093 3.39931L7.66536 14.4009L10.7406 3.44795C10.815 3.18305 11.0565 3 11.3316 3H14.2564C14.5332 3 14.7757 3.18519 14.8486 3.45218L17.8385 14.4009L21.726 3.29364C21.7875 3.11776 21.9535 3 22.1399 3H28.8008C29.1399 3 29.4147 3.27485 29.4147 3.61389V15.6287C29.4147 15.8224 29.5718 15.9795 29.7655 15.9795H38.0969V3.61389C38.0969 3.27485 38.3718 3 38.7108 3H41.0349C41.3739 3 41.6487 3.27485 41.6487 3.61389V15.9795H55.6806C55.9228 15.9795 56.1191 15.7831 56.1191 15.541V12.8223C56.1191 12.5801 55.9228 12.3838 55.6806 12.3838H48.3139C45.2006 12.3838 44.4551 10.9806 44.4551 8.78814V6.59566C44.4551 4.09624 45.4198 3 48.3139 3H74.3893C74.8604 3 75.0941 3.57152 74.758 3.9016L73.6298 5.00964C73.3674 5.26734 73.0143 5.41172 72.6466 5.41172H48.3577C48.1156 5.41172 47.9192 5.60804 47.9192 5.85022V8.52504C47.9192 8.76722 48.1156 8.96353 48.3577 8.96353H56.4699C58.0682 8.96353 59.364 10.2593 59.364 11.8576V15.541C59.364 17.1393 58.0682 18.435 56.4699 18.435H41.6487V23.2585C41.6487 23.5975 41.3739 23.8724 41.0349 23.8724H26.4768C26.1378 23.8724 25.8629 23.5975 25.8629 23.2585V22.1184C25.8629 21.7793 26.1378 21.5045 26.4768 21.5045H38.0969V18.435H28.8447C27.1979 18.435 25.8629 17.1001 25.8629 15.4533V5.41172H23.5827L19.2094 18.0223C19.1237 18.2694 18.8909 18.435 18.6294 18.435H16.1144C15.8378 18.435 15.5953 18.25 15.5223 17.9832L12.3573 6.42026L9.14947 17.9852C9.07573 18.251 8.83376 18.435 8.5579 18.435H5.94217C5.68627 18.435 5.45721 18.2763 5.36736 18.0367L0.0396414 3.82945Z" fill="#0C1D3D"></path>
<path d="M62.1703 7.64805C62.1703 7.30901 62.4452 7.03416 62.7842 7.03416H65.0644C65.4034 7.03416 65.6783 7.30901 65.6783 7.64805V15.5848C65.6783 15.827 65.8746 16.0233 66.1168 16.0233H77.3861C77.7252 16.0233 78 16.2982 78 16.6372V17.8211C78 18.1602 77.7252 18.435 77.3861 18.435H66.2045C63.0473 18.435 62.1703 17.2072 62.1703 14.7517V7.64805Z" fill="#0C1D3D"></path>
<path d="M74.5359 7.14677C74.5359 6.68158 74.7207 6.23545 75.0496 5.90652L76.5968 4.40318C77.1493 3.85071 77.7369 4.40939 77.8685 5.45556C77.9727 6.28434 77.9668 6.76316 77.9599 7.32969C77.958 7.47807 77.9562 7.6332 77.9562 7.8015V10.5421C77.9562 10.8811 77.6813 11.156 77.3423 11.156H68.0462C67.7071 11.156 67.4323 10.8811 67.4323 10.5421V9.35816C67.4323 9.01912 67.7071 8.74427 68.0462 8.74427H74.5359V7.14677Z" fill="#0C1D3D"></path>
<path d="M45.1567 20.9783H45.7549L46.823 22.0307L47.8911 20.9783H48.4893V23.8724H47.8911V21.8114L46.823 22.82L45.7549 21.8114V23.8724H45.1567V20.9783Z" fill="#0C1D3D"></path>
<path d="M53.4004 20.9783H55.9437V21.5045H54.0143V22.0745H55.6806V22.6007H54.0143V23.3462H55.9437V23.8724H53.4004V20.9783Z" fill="#0C1D3D"></path>
<path d="M63.2227 20.9783V21.5045H62.1703V23.8724H61.5564V21.5045H60.504V20.9783H63.2227Z" fill="#0C1D3D"></path>
<path d="M67.9585 20.9783H70.5017V21.5045H68.5723V22.0745H70.2386V22.6007H68.5723V23.3462H70.5017V23.8724H67.9585V20.9783Z" fill="#0C1D3D"></path>
<path fill-rule="evenodd" clip-rule="evenodd" d="M75.1498 23.8724H75.7637V22.9954H76.6167L77.2546 23.8724H77.9562L77.2781 22.94C77.6728 22.8032 77.9562 22.4281 77.9562 21.9868C77.9562 21.4298 77.5046 20.9783 76.9476 20.9783H75.1498V23.8724ZM76.8375 21.6H75.7875V22.575H76.8375C77.1067 22.575 77.325 22.3567 77.325 22.0875C77.325 21.8183 77.1067 21.6 76.8375 21.6Z" fill="#0C1D3D"></path>
</svg>